<svg width="20" height="20" viewBox="0 0 20 20" fill="none" xmlns="http://www.w3.org/2000/svg">
<path d="M9.58329 15.3126C11.8845 15.3126 13.75 13.4471 13.75 11.1459C13.75 8.84473 11.8845 6.97925 9.58329 6.97925C7.28211 6.97925 5.41663 8.84473 5.41663 11.1459C5.41663 13.4471 7.28211 15.3126 9.58329 15.3126Z" stroke="#252525" stroke-width="1.3" stroke-miterlimit="10"/>
<path d="M3.75 18.9582C4.34142 17.8497 5.19181 16.9292 6.21575 16.2893C7.23969 15.6494 8.40112 15.3125 9.58337 15.3125C10.7656 15.3125 11.927 15.6494 12.951 16.2894C13.9749 16.9293 14.8253 17.8498 15.4167 18.9583" stroke="#252525" stroke-width="1.3" stroke-linecap="round" stroke-linejoin="round"/>
<path d="M6.25 5.49377C7.18587 4.6363 8.36534 4.16675 9.58333 4.16675C10.8013 4.16675 11.9808 4.6363 12.9167 5.49377" stroke="#252525" stroke-width="1.3" stroke-linecap="round" stroke-linejoin="round"/>
<path d="M4.58337 3.74878C7.44065 0.972738 11.7261 0.972738 14.5834 3.74878" stroke="#252525" stroke-width="1.3" stroke-linecap="round" stroke-linejoin="round"/>
</svg>
