<svg width="20" height="20" viewBox="0 0 20 20" fill="none" xmlns="http://www.w3.org/2000/svg">
<path d="M10.8333 2.5C8.62397 2.50252 6.50581 3.3813 4.94356 4.94356C3.3813 6.50581 2.50252 8.62397 2.5 10.8333C2.5 13.0598 3.36731 15.1521 4.94155 16.7251C5.71329 17.5016 6.63143 18.1172 7.64278 18.5363C8.65413 18.9554 9.73859 19.1697 10.8333 19.1667C13.0427 19.1642 15.1609 18.2854 16.7231 16.7231C18.2854 15.1609 19.1642 13.0427 19.1667 10.8333C19.1642 8.62397 18.2854 6.50581 16.7231 4.94356C15.1609 3.3813 13.0427 2.50252 10.8333 2.5ZM10.8333 3.6881C12.7277 3.6903 14.5438 4.44381 15.8833 5.78332C17.2229 7.12284 17.9764 8.93898 17.9786 10.8333C17.9769 12.6299 17.2952 14.3593 16.0705 15.6737C15.262 14.7165 14.2092 13.9964 13.0242 13.5897C13.4356 13.2561 13.7675 12.8349 13.9956 12.3569C14.2237 11.8788 14.3424 11.3559 14.343 10.8262C14.3416 10.3578 14.2478 9.89427 14.0669 9.46218C13.8861 9.03008 13.6218 8.63791 13.2892 8.30814C12.9565 7.97836 12.5621 7.71746 12.1284 7.54037C11.6948 7.36329 11.2304 7.2735 10.762 7.27616C10.2938 7.27756 9.83051 7.37129 9.39857 7.55197C8.96663 7.73266 8.57457 7.99676 8.24482 8.32915C7.91508 8.66155 7.65412 9.05571 7.4769 9.48908C7.29967 9.92245 7.20966 10.3865 7.212 10.8547C7.212 11.9585 7.73002 12.9339 8.52367 13.585C7.36271 13.9807 6.32723 14.6767 5.52253 15.6024C4.33922 14.2962 3.68518 12.5958 3.6881 10.8333C3.6903 8.93898 4.44381 7.12284 5.78332 5.78332C7.12284 4.44381 8.93898 3.6903 10.8333 3.6881ZM10.7917 8.46426C12.0951 8.46426 13.1537 9.52405 13.1537 10.8547C13.1522 11.4668 12.9131 12.0543 12.4869 12.4936C12.0608 12.9328 11.4807 13.1895 10.869 13.2095C10.8345 13.2095 10.8013 13.2024 10.7668 13.2024C10.7371 13.2024 10.7086 13.2083 10.6789 13.2095C10.0643 13.1855 9.48314 12.9234 9.05832 12.4786C8.6335 12.0338 8.39831 11.4413 8.40248 10.8262C8.40248 9.52405 9.46108 8.46426 10.7917 8.46426ZM10.6777 14.3953C10.7062 14.3964 10.7347 14.4048 10.7632 14.4048H10.7917C10.8179 14.4048 10.8393 14.3964 10.8654 14.3953C11.6943 14.4097 12.5102 14.6032 13.2573 14.9625C14.0043 15.3218 14.6649 15.8384 15.1937 16.4768C13.9484 17.4497 12.4136 17.9783 10.8333 17.9786C9.21727 17.9818 7.64862 17.4327 6.38746 16.4222C6.9176 15.799 7.57441 15.2959 8.31417 14.9464C9.05392 14.5969 9.85965 14.409 10.6777 14.3953Z" fill="#252525"/>
</svg>
