<svg width="20" height="20" viewBox="0 0 20 20" fill="none" xmlns="http://www.w3.org/2000/svg">
<path d="M14.4834 7V7.00002C14.4836 8.12962 14.0935 9.22461 13.3792 10.0997C12.6649 10.9747 11.6702 11.5761 10.5634 11.802L10.4834 11.8183V11.9V13C10.4834 13.2387 10.3886 13.4676 10.2198 13.6364C10.051 13.8052 9.82207 13.9 9.58337 13.9C9.34468 13.9 9.11576 13.8052 8.94698 13.6364C8.7782 13.4676 8.68337 13.2387 8.68337 13V11C8.68337 10.7613 8.7782 10.5324 8.94698 10.3636C9.11576 10.1948 9.34468 10.1 9.58337 10.1C10.1965 10.1 10.7958 9.91819 11.3056 9.57756C11.8154 9.23692 12.2128 8.75277 12.4474 8.18632C12.682 7.61987 12.7434 6.99656 12.6238 6.39522C12.5042 5.79388 12.2089 5.24151 11.7754 4.80797C11.3419 4.37443 10.7895 4.07918 10.1882 3.95957C9.58681 3.83995 8.96351 3.90134 8.39706 4.13597C7.8306 4.37061 7.34645 4.76794 7.00582 5.27773C6.66519 5.78752 6.48337 6.38688 6.48337 7C6.48337 7.23869 6.38855 7.46761 6.21977 7.6364C6.05099 7.80518 5.82207 7.9 5.58337 7.9C5.34468 7.9 5.11576 7.80518 4.94698 7.6364C4.7782 7.46761 4.68337 7.23869 4.68337 7C4.68337 5.70044 5.19962 4.45411 6.11855 3.53518C7.03748 2.61625 8.28381 2.1 9.58337 2.1C10.8829 2.1 12.1293 2.61625 13.0482 3.53518C13.9671 4.45411 14.4834 5.70044 14.4834 7Z" fill="#252525" stroke="white" stroke-width="0.2"/>
<path d="M10.4834 17C10.4834 17.4971 10.0804 17.9 9.58337 17.9C9.08632 17.9 8.68337 17.4971 8.68337 17C8.68337 16.5029 9.08632 16.1 9.58337 16.1C10.0804 16.1 10.4834 16.5029 10.4834 17Z" fill="#252525" stroke="white" stroke-width="0.2"/>
</svg>
