<svg width="20" height="20" viewBox="0 0 20 20" fill="none" xmlns="http://www.w3.org/2000/svg">
<path d="M17.9889 16.816L17.9891 16.8162C18.0665 16.893 18.1279 16.9843 18.1698 17.0849C18.2117 17.1855 18.2333 17.2934 18.2333 17.4024C18.2333 17.5114 18.2117 17.6193 18.1698 17.7199C18.1279 17.8205 18.0665 17.9119 17.9891 17.9886L17.9885 17.9892C17.9117 18.0666 17.8204 18.128 17.7198 18.1699C17.6192 18.2118 17.5113 18.2334 17.4023 18.2334C17.2933 18.2334 17.1854 18.2118 17.0848 18.1699C16.9842 18.128 16.8929 18.0666 16.8161 17.9892L16.8159 17.989L13.678 14.8419L13.6153 14.779L13.5455 14.8338C12.2695 15.8354 10.6939 16.3788 9.07177 16.3768H9.07165C7.62685 16.3768 6.2145 15.9484 5.0132 15.1457C3.81189 14.343 2.87559 13.2021 2.32269 11.8673C1.76979 10.5325 1.62513 9.06367 1.90699 7.64663C2.18886 6.2296 2.88459 4.92797 3.90622 3.90634C4.92785 2.88472 6.22948 2.18898 7.64651 1.90712C9.06355 1.62525 10.5323 1.76991 11.8672 2.32281C13.202 2.87571 14.3429 3.81202 15.1456 5.01332C15.9482 6.21462 16.3767 7.62698 16.3767 9.07177V9.0719C16.3787 10.694 15.8352 12.2696 14.8337 13.5456L14.7789 13.6155L14.8418 13.6782L17.9889 16.816ZM4.37072 5.93071C3.74947 6.86047 3.41788 7.95356 3.41788 9.07177C3.41788 10.5712 4.01355 12.0093 5.07383 13.0696C6.13412 14.1299 7.57218 14.7255 9.07165 14.7255C10.1899 14.7255 11.283 14.3939 12.2127 13.7727C13.1425 13.1515 13.8671 12.2685 14.295 11.2354C14.723 10.2023 14.8349 9.0655 14.6168 7.96878C14.3986 6.87205 13.8602 5.86465 13.0695 5.07396C12.2788 4.28326 11.2714 3.74479 10.1746 3.52664C9.07792 3.30849 7.94114 3.42045 6.90805 3.84837C5.87496 4.27629 4.99196 5.00095 4.37072 5.93071Z" fill="#252525" stroke="white" stroke-width="0.2"/>
</svg>
