<svg width="20" height="20" viewBox="0 0 20 20" fill="none" xmlns="http://www.w3.org/2000/svg">
<path d="M14.3012 18.2893C14.0832 18.2893 13.8639 18.2373 13.6619 18.1326L10.0182 16.2393L6.33773 18.1319C6.1113 18.2509 5.85549 18.3042 5.59971 18.286C5.34393 18.2677 5.09857 18.1784 4.89183 18.0285C4.68374 17.8806 4.52211 17.6777 4.42554 17.443C4.32896 17.2084 4.30135 16.9517 4.34587 16.7022L5.04182 12.6943L2.08269 9.82107C1.8982 9.645 1.76774 9.42108 1.7063 9.17505C1.64487 8.92901 1.65494 8.67085 1.73538 8.43022C1.81387 8.1892 1.95949 7.9749 2.15555 7.81185C2.35161 7.64879 2.59019 7.54358 2.84397 7.50825L6.91703 6.92346L8.7689 3.25535C9.00222 2.7891 9.47352 2.5 10.0002 2.5C10.5268 2.5 10.9981 2.7891 11.2314 3.25535L13.0533 6.90173L17.1563 7.50825C17.4101 7.54358 17.6487 7.64879 17.8448 7.81185C18.0408 7.9749 18.1864 8.1892 18.2649 8.43022C18.345 8.67088 18.355 8.92896 18.2935 9.17493C18.2321 9.4209 18.1018 9.64482 17.9176 9.82107L14.9698 12.6594L15.6544 16.7029C15.6986 16.9523 15.6708 17.2089 15.5742 17.4435C15.4777 17.678 15.3163 17.881 15.1085 18.0292C14.8737 18.1976 14.5913 18.2886 14.3012 18.2893ZM3.01262 8.87803L5.95976 11.7164C6.28307 12.0285 6.43106 12.4763 6.35507 12.9162L5.65978 16.9248L6.02775 17.5491L5.71711 16.9663L9.3602 15.0736C9.55725 14.9714 9.77648 14.9179 9.99907 14.9178C10.2217 14.9177 10.441 14.9709 10.6381 15.073L14.2819 16.9663L14.3392 16.9248L13.6432 12.9169C13.6058 12.7002 13.6222 12.4777 13.6909 12.2686C13.7597 12.0595 13.8787 11.87 14.0379 11.7164L16.9857 8.87803L16.9637 8.8102L12.8906 8.22541C12.6704 8.19355 12.4612 8.10938 12.2811 7.98011C12.1011 7.85084 11.9554 7.68033 11.8567 7.48323L10.0348 3.83685C10.0295 3.82631 10.0235 3.81578 9.99882 3.81578L8.14095 7.48323C8.04255 7.6803 7.89716 7.85082 7.71729 7.9801C7.53741 8.10938 7.32844 8.19357 7.10835 8.22541L3.03396 8.8102L2.54666 9.34889L3.01262 8.87803Z" fill="#252525"/>
</svg>
